<svg width="635" height="132" viewBox="0 0 635 132" fill="none" xmlns="http://www.w3.org/2000/svg">
<path d="M602.476 103.477H547.971L538.606 130H516.317L562.955 0H587.679L634.317 130H611.841L602.476 103.477ZM596.482 86.1063L575.317 25.7759L553.965 86.1063H596.482Z" fill="black"/>
<path d="M499.618 38.4724C496.578 38.4724 494.029 37.4429 491.97 35.3839C489.911 33.3249 488.882 30.7757 488.882 27.7362C488.882 24.6967 489.911 22.1475 491.97 20.0885C494.029 18.0295 496.578 17 499.618 17C502.559 17 505.059 18.0295 507.118 20.0885C509.177 22.1475 510.207 24.6967 510.207 27.7362C510.207 30.7757 509.177 33.3249 507.118 35.3839C505.059 37.4429 502.559 38.4724 499.618 38.4724ZM507.854 49.2086V130.245H491.088V49.2086H507.854Z" fill="black"/>
<path d="M469.075 21.4122V130.245H452.309V21.4122H469.075Z" fill="black"/>
<path d="M347.046 89.3591C347.046 81.2212 348.713 74.0147 352.046 67.7396C355.478 61.4646 360.086 56.6112 365.871 53.1796C371.754 49.6499 378.225 47.885 385.284 47.885C391.657 47.885 397.197 49.1596 401.903 51.7089C406.708 54.1601 410.532 57.2486 413.375 60.9744V49.2087H430.288V130.245H413.375V118.185C410.532 122.009 406.659 125.196 401.756 127.745C396.854 130.294 391.265 131.569 384.99 131.569C378.029 131.569 371.656 129.804 365.871 126.274C360.086 122.646 355.478 117.646 352.046 111.273C348.713 104.802 347.046 97.4971 347.046 89.3591ZM413.375 89.6533C413.375 84.0646 412.198 79.2112 409.845 75.0932C407.59 70.9752 404.6 67.8377 400.874 65.6806C397.148 63.5236 393.128 62.4451 388.814 62.4451C384.5 62.4451 380.48 63.5236 376.754 65.6806C373.028 67.7396 369.989 70.8281 367.636 74.9461C365.381 78.9661 364.253 83.7704 364.253 89.3591C364.253 94.9479 365.381 99.8502 367.636 104.066C369.989 108.282 373.028 111.518 376.754 113.773C380.578 115.93 384.598 117.009 388.814 117.009C393.128 117.009 397.148 115.93 400.874 113.773C404.6 111.616 407.59 108.478 409.845 104.36C412.198 100.144 413.375 95.242 413.375 89.6533Z" fill="black"/>
<path d="M299.221 115.244L322.164 49.2087H339.96L309.075 130.245H289.073L258.335 49.2087H276.278L299.221 115.244Z" fill="black"/>
<path d="M237.476 103.477H182.971L173.606 130H151.317L197.955 0H222.679L269.317 130H246.841L237.476 103.477ZM231.482 86.1063L210.317 25.7759L188.965 86.1063H231.482Z" fill="black"/>
<rect width="130" height="130" rx="28" fill="black"/>
<path d="M54.8436 114.427C36.3323 114.427 27.0742 114.427 21.3259 108.674C15.5777 102.921 15.5728 98.5764 15.5728 80.0651M113.75 80.0651C113.75 98.5764 113.75 102.926 107.997 108.674C102.243 114.422 92.9903 114.427 74.479 114.427M74.479 16.25C92.9903 16.25 102.248 16.25 107.997 22.0032C113.745 27.7564 113.75 32.1007 113.75 50.612M54.8436 16.25C36.3323 16.25 27.0742 16.25 21.3259 22.0032C15.5777 27.7564 15.5728 32.1007 15.5728 50.612" stroke="white" stroke-width="6" stroke-linecap="round"/>
<path d="M34.6783 75.4508C31.7575 72.0637 30.2996 70.3701 30.2996 65.3385C30.2996 60.3069 31.7575 58.6134 34.6783 55.2263C40.51 48.4619 50.2884 40.7943 64.6615 40.7943C79.0347 40.7943 88.8131 48.4619 94.6448 55.2263C97.5656 58.6134 99.0235 60.3069 99.0235 65.3385C99.0235 70.3701 97.5656 72.0637 94.6448 75.4508C88.8131 82.2152 79.0347 89.8828 64.6615 89.8828C50.2884 89.8828 40.51 82.2152 34.6783 75.4508Z" stroke="white" stroke-width="6"/>
<path fill-rule="evenodd" clip-rule="evenodd" d="M60.2986 79.8796C60.2986 80.2652 60.1454 80.6351 59.8727 80.9078C59.6 81.1805 59.2301 81.3337 58.8445 81.3337C58.4588 81.3337 58.089 81.1805 57.8163 80.9078C57.5436 80.6351 57.3904 80.2652 57.3904 79.8796C57.3904 79.4939 57.5436 79.1241 57.8163 78.8514C58.089 78.5787 58.4588 78.4255 58.8445 78.4255C59.2301 78.4255 59.6 78.5787 59.8727 78.8514C60.1454 79.1241 60.2986 79.4939 60.2986 79.8796ZM66.115 79.8796C66.115 80.2652 65.9618 80.6351 65.6891 80.9078C65.4164 81.1805 65.0466 81.3337 64.6609 81.3337C64.2752 81.3337 63.9054 81.1805 63.6327 80.9078C63.36 80.6351 63.2068 80.2652 63.2068 79.8796C63.2068 79.4939 63.36 79.1241 63.6327 78.8514C63.9054 78.5787 64.2752 78.4255 64.6609 78.4255C65.0466 78.4255 65.4164 78.5787 65.6891 78.8514C65.9618 79.1241 66.115 79.4939 66.115 79.8796ZM70.4773 81.3337C70.863 81.3337 71.2328 81.1805 71.5055 80.9078C71.7782 80.6351 71.9314 80.2652 71.9314 79.8796C71.9314 79.4939 71.7782 79.1241 71.5055 78.8514C71.2328 78.5787 70.863 78.4255 70.4773 78.4255C70.0917 78.4255 69.7218 78.5787 69.4491 78.8514C69.1764 79.1241 69.0232 79.4939 69.0232 79.8796C69.0232 80.2652 69.1764 80.6351 69.4491 80.9078C69.7218 81.1805 70.0917 81.3337 70.4773 81.3337Z" fill="white"/>
<path fill-rule="evenodd" clip-rule="evenodd" d="M60.2993 50.7975C60.2993 51.1832 60.1461 51.553 59.8734 51.8257C59.6007 52.0984 59.2309 52.2516 58.8452 52.2516C58.4596 52.2516 58.0897 52.0984 57.817 51.8257C57.5443 51.553 57.3911 51.1832 57.3911 50.7975C57.3911 50.4119 57.5443 50.042 57.817 49.7693C58.0897 49.4966 58.4596 49.3434 58.8452 49.3434C59.2309 49.3434 59.6007 49.4966 59.8734 49.7693C60.1461 50.042 60.2993 50.4119 60.2993 50.7975ZM66.1158 50.7975C66.1158 51.1832 65.9626 51.553 65.6899 51.8257C65.4172 52.0984 65.0473 52.2516 64.6616 52.2516C64.276 52.2516 63.9061 52.0984 63.6334 51.8257C63.3607 51.553 63.2075 51.1832 63.2075 50.7975C63.2075 50.4119 63.3607 50.042 63.6334 49.7693C63.9061 49.4966 64.276 49.3434 64.6616 49.3434C65.0473 49.3434 65.4172 49.4966 65.6899 49.7693C65.9626 50.042 66.1158 50.4119 66.1158 50.7975ZM70.4781 52.2516C70.8637 52.2516 71.2336 52.0984 71.5063 51.8257C71.779 51.553 71.9322 51.1832 71.9322 50.7975C71.9322 50.4119 71.779 50.042 71.5063 49.7693C71.2336 49.4966 70.8637 49.3434 70.4781 49.3434C70.0924 49.3434 69.7226 49.4966 69.4499 49.7693C69.1772 50.042 69.024 50.4119 69.024 50.7975C69.024 51.1832 69.1772 51.553 69.4499 51.8257C69.7226 52.0984 70.0924 52.2516 70.4781 52.2516ZM60.2993 79.8796C60.2993 80.2653 60.1461 80.6351 59.8734 80.9078C59.6007 81.1805 59.2309 81.3337 58.8452 81.3337C58.4596 81.3337 58.0897 81.1805 57.817 80.9078C57.5443 80.6351 57.3911 80.2653 57.3911 79.8796C57.3911 79.4939 57.5443 79.1241 57.817 78.8514C58.0897 78.5787 58.4596 78.4255 58.8452 78.4255C59.2309 78.4255 59.6007 78.5787 59.8734 78.8514C60.1461 79.1241 60.2993 79.4939 60.2993 79.8796ZM66.1158 79.8796C66.1158 80.2653 65.9626 80.6351 65.6899 80.9078C65.4172 81.1805 65.0473 81.3337 64.6616 81.3337C64.276 81.3337 63.9061 81.1805 63.6334 80.9078C63.3607 80.6351 63.2075 80.2653 63.2075 79.8796C63.2075 79.4939 63.3607 79.1241 63.6334 78.8514C63.9061 78.5787 64.276 78.4255 64.6616 78.4255C65.0473 78.4255 65.4172 78.5787 65.6899 78.8514C65.9626 79.1241 66.1158 79.4939 66.1158 79.8796ZM70.4781 81.3337C70.8637 81.3337 71.2336 81.1805 71.5063 80.9078C71.779 80.6351 71.9322 80.2653 71.9322 79.8796C71.9322 79.4939 71.779 79.1241 71.5063 78.8514C71.2336 78.5787 70.8637 78.4255 70.4781 78.4255C70.0924 78.4255 69.7226 78.5787 69.4499 78.8514C69.1772 79.1241 69.024 79.4939 69.024 79.8796C69.024 80.2653 69.1772 80.6351 69.4499 80.9078C69.7226 81.1805 70.0924 81.3337 70.4781 81.3337ZM80.6568 71.155C80.6568 70.7693 80.5036 70.3995 80.2309 70.1268C79.9582 69.8541 79.5883 69.7009 79.2027 69.7009C78.817 69.7009 78.4472 69.8541 78.1745 70.1268C77.9018 70.3995 77.7486 70.7693 77.7486 71.155C77.7486 71.5406 77.9018 71.9105 78.1745 72.1832C78.4472 72.4559 78.817 72.6091 79.2027 72.6091C79.5883 72.6091 79.9582 72.4559 80.2309 72.1832C80.5036 71.9105 80.6568 71.5406 80.6568 71.155ZM80.6568 65.3386C80.6568 64.9529 80.5036 64.583 80.2309 64.3104C79.9582 64.0377 79.5883 63.8845 79.2027 63.8845C78.817 63.8845 78.4472 64.0377 78.1745 64.3104C77.9018 64.583 77.7486 64.9529 77.7486 65.3386C77.7486 65.7242 77.9018 66.0941 78.1745 66.3668C78.4472 66.6395 78.817 66.7927 79.2027 66.7927C79.5883 66.7927 79.9582 66.6395 80.2309 66.3668C80.5036 66.0941 80.6568 65.7242 80.6568 65.3386ZM79.2027 58.068C79.5883 58.068 79.9582 58.2212 80.2309 58.4939C80.5036 58.7666 80.6568 59.1365 80.6568 59.5221C80.6568 59.9078 80.5036 60.2777 80.2309 60.5503C79.9582 60.823 79.5883 60.9762 79.2027 60.9762C78.817 60.9762 78.4472 60.823 78.1745 60.5503C77.9018 60.2777 77.7486 59.9078 77.7486 59.5221C77.7486 59.1365 77.9018 58.7666 78.1745 58.4939C78.4472 58.2212 78.817 58.068 79.2027 58.068ZM50.1206 69.7009C50.5063 69.7009 50.8761 69.8541 51.1488 70.1268C51.4215 70.3995 51.5747 70.7693 51.5747 71.155C51.5747 71.5406 51.4215 71.9105 51.1488 72.1832C50.8761 72.4559 50.5063 72.6091 50.1206 72.6091C49.735 72.6091 49.3651 72.4559 49.0924 72.1832C48.8197 71.9105 48.6665 71.5406 48.6665 71.155C48.6665 70.7693 48.8197 70.3995 49.0924 70.1268C49.3651 69.8541 49.735 69.7009 50.1206 69.7009ZM50.1206 63.8845C50.5063 63.8845 50.8761 64.0377 51.1488 64.3104C51.4215 64.583 51.5747 64.9529 51.5747 65.3386C51.5747 65.7242 51.4215 66.0941 51.1488 66.3668C50.8761 66.6395 50.5063 66.7927 50.1206 66.7927C49.735 66.7927 49.3651 66.6395 49.0924 66.3668C48.8197 66.0941 48.6665 65.7242 48.6665 65.3386C48.6665 64.9529 48.8197 64.583 49.0924 64.3104C49.3651 64.0377 49.735 63.8845 50.1206 63.8845ZM51.5747 59.5221C51.5747 59.1365 51.4215 58.7666 51.1488 58.4939C50.8761 58.2212 50.5063 58.068 50.1206 58.068C49.735 58.068 49.3651 58.2212 49.0924 58.4939C48.8197 58.7666 48.6665 59.1365 48.6665 59.5221C48.6665 59.9078 48.8197 60.2777 49.0924 60.5503C49.3651 60.823 49.735 60.9762 50.1206 60.9762C50.5063 60.9762 50.8761 60.823 51.1488 60.5503C51.4215 60.2777 51.5747 59.9078 51.5747 59.5221ZM71.9322 56.6139H57.3911C57.0055 56.6139 56.6356 56.7671 56.3629 57.0398C56.0902 57.3125 55.937 57.6824 55.937 58.068V72.6091C55.937 72.9947 56.0902 73.3646 56.3629 73.6373C56.6356 73.91 57.0055 74.0632 57.3911 74.0632H71.9322C72.3178 74.0632 72.6877 73.91 72.9604 73.6373C73.2331 73.3646 73.3863 72.9947 73.3863 72.6091V58.068C73.3863 57.6824 73.2331 57.3125 72.9604 57.0398C72.6877 56.7671 72.3178 56.6139 71.9322 56.6139ZM57.3911 53.7057C56.2342 53.7057 55.1246 54.1653 54.3065 54.9834C53.4884 55.8015 53.0288 56.9111 53.0288 58.068V72.6091C53.0288 73.766 53.4884 74.8756 54.3065 75.6937C55.1246 76.5118 56.2342 76.9714 57.3911 76.9714H71.9322C73.0891 76.9714 74.1987 76.5118 75.0168 75.6937C75.8349 74.8756 76.2945 73.766 76.2945 72.6091V58.068C76.2945 56.9111 75.8349 55.8015 75.0168 54.9834C74.1987 54.1653 73.0891 53.7057 71.9322 53.7057H57.3911ZM67.5699 62.4304H61.7534V68.2468H67.5699V62.4304ZM58.8452 59.5221V71.155H70.4781V59.5221H58.8452Z" fill="white"/>
</svg>
