<svg width="635" height="132" viewBox="0 0 635 132" fill="none" xmlns="http://www.w3.org/2000/svg">
<path d="M602.476 103.477H547.971L538.606 130H516.317L562.955 0H587.679L634.317 130H611.841L602.476 103.477ZM596.482 86.1063L575.317 25.7759L553.964 86.1063H596.482Z" fill="white"/>
<path d="M499.618 38.4724C496.579 38.4724 494.029 37.4429 491.97 35.3839C489.911 33.3249 488.882 30.7756 488.882 27.7362C488.882 24.6967 489.911 22.1474 491.97 20.0884C494.029 18.0294 496.579 16.9999 499.618 16.9999C502.559 16.9999 505.06 18.0294 507.119 20.0884C509.178 22.1474 510.207 24.6967 510.207 27.7362C510.207 30.7756 509.178 33.3249 507.119 35.3839C505.06 37.4429 502.559 38.4724 499.618 38.4724ZM507.854 49.2086V130.245H491.088V49.2086H507.854Z" fill="white"/>
<path d="M469.075 21.4123V130.245H452.309V21.4123H469.075Z" fill="white"/>
<path d="M347.046 89.3592C347.046 81.2213 348.713 74.0148 352.046 67.7397C355.478 61.4647 360.086 56.6113 365.871 53.1796C371.754 49.6499 378.225 47.8851 385.284 47.8851C391.657 47.8851 397.197 49.1597 401.903 51.7089C406.708 54.1601 410.531 57.2486 413.375 60.9744V49.2087H430.288V130.245H413.375V118.185C410.531 122.009 406.659 125.196 401.756 127.745C396.854 130.294 391.265 131.569 384.99 131.569C378.029 131.569 371.656 129.804 365.871 126.274C360.086 122.646 355.478 117.646 352.046 111.273C348.713 104.802 347.046 97.4972 347.046 89.3592ZM413.375 89.6533C413.375 84.0646 412.198 79.2113 409.845 75.0933C407.59 70.9753 404.6 67.8378 400.874 65.6807C397.148 63.5237 393.128 62.4451 388.814 62.4451C384.5 62.4451 380.48 63.5237 376.754 65.6807C373.028 67.7397 369.989 70.8282 367.636 74.9462C365.381 78.9662 364.253 83.7705 364.253 89.3592C364.253 94.9479 365.381 99.8503 367.636 104.066C369.989 108.282 373.028 111.518 376.754 113.773C380.578 115.93 384.598 117.009 388.814 117.009C393.128 117.009 397.148 115.93 400.874 113.773C404.6 111.616 407.59 108.478 409.845 104.36C412.198 100.144 413.375 95.2421 413.375 89.6533Z" fill="white"/>
<path d="M299.222 115.244L322.165 49.2087H339.96L309.075 130.245H289.074L258.336 49.2087H276.278L299.222 115.244Z" fill="white"/>
<path d="M237.476 103.477H182.971L173.606 130H151.317L197.955 0H222.679L269.317 130H246.841L237.476 103.477ZM231.482 86.1063L210.317 25.7759L188.965 86.1063H231.482Z" fill="white"/>
<rect width="130" height="130" rx="28" fill="white"/>
<path d="M54.8436 114.427C36.3323 114.427 27.0742 114.427 21.3259 108.674C15.5777 102.921 15.5728 98.5765 15.5728 80.0652M113.75 80.0652C113.75 98.5765 113.75 102.926 107.997 108.674C102.243 114.422 92.9903 114.427 74.479 114.427M74.479 16.2501C92.9903 16.2501 102.248 16.2501 107.997 22.0032C113.745 27.7564 113.75 32.1008 113.75 50.612M54.8436 16.2501C36.3323 16.2501 27.0742 16.2501 21.3259 22.0032C15.5777 27.7564 15.5728 32.1008 15.5728 50.612" stroke="black" stroke-width="6" stroke-linecap="round"/>
<path d="M34.678 75.4509C31.7572 72.0638 30.2993 70.3702 30.2993 65.3386C30.2993 60.3071 31.7572 58.6135 34.678 55.2264C40.5097 48.462 50.2882 40.7944 64.6613 40.7944C79.0344 40.7944 88.8128 48.462 94.6446 55.2264C97.5653 58.6135 99.0233 60.3071 99.0233 65.3386C99.0233 70.3702 97.5653 72.0638 94.6446 75.4509C88.8128 82.2153 79.0344 89.8829 64.6613 89.8829C50.2882 89.8829 40.5097 82.2153 34.678 75.4509Z" stroke="black" stroke-width="6"/>
<path fill-rule="evenodd" clip-rule="evenodd" d="M60.2983 79.8795C60.2983 80.2651 60.1451 80.635 59.8724 80.9077C59.5998 81.1804 59.2299 81.3336 58.8442 81.3336C58.4586 81.3336 58.0887 81.1804 57.816 80.9077C57.5433 80.635 57.3901 80.2651 57.3901 79.8795C57.3901 79.4938 57.5433 79.1239 57.816 78.8513C58.0887 78.5786 58.4586 78.4254 58.8442 78.4254C59.2299 78.4254 59.5998 78.5786 59.8724 78.8513C60.1451 79.1239 60.2983 79.4938 60.2983 79.8795ZM66.1148 79.8795C66.1148 80.2651 65.9616 80.635 65.6889 80.9077C65.4162 81.1804 65.0463 81.3336 64.6607 81.3336C64.275 81.3336 63.9051 81.1804 63.6325 80.9077C63.3598 80.635 63.2066 80.2651 63.2066 79.8795C63.2066 79.4938 63.3598 79.1239 63.6325 78.8513C63.9051 78.5786 64.275 78.4254 64.6607 78.4254C65.0463 78.4254 65.4162 78.5786 65.6889 78.8513C65.9616 79.1239 66.1148 79.4938 66.1148 79.8795ZM70.4771 81.3336C70.8627 81.3336 71.2326 81.1804 71.5053 80.9077C71.778 80.635 71.9312 80.2651 71.9312 79.8795C71.9312 79.4938 71.778 79.1239 71.5053 78.8513C71.2326 78.5786 70.8627 78.4254 70.4771 78.4254C70.0914 78.4254 69.7216 78.5786 69.4489 78.8513C69.1762 79.1239 69.023 79.4938 69.023 79.8795C69.023 80.2651 69.1762 80.635 69.4489 80.9077C69.7216 81.1804 70.0914 81.3336 70.4771 81.3336Z" fill="black"/>
<path fill-rule="evenodd" clip-rule="evenodd" d="M60.2996 50.7975C60.2996 51.1831 60.1464 51.553 59.8737 51.8257C59.601 52.0984 59.2311 52.2516 58.8455 52.2516C58.4598 52.2516 58.09 52.0984 57.8173 51.8257C57.5446 51.553 57.3914 51.1831 57.3914 50.7975C57.3914 50.4118 57.5446 50.042 57.8173 49.7693C58.09 49.4966 58.4598 49.3434 58.8455 49.3434C59.2311 49.3434 59.601 49.4966 59.8737 49.7693C60.1464 50.042 60.2996 50.4118 60.2996 50.7975ZM66.116 50.7975C66.116 51.1831 65.9628 51.553 65.6901 51.8257C65.4174 52.0984 65.0475 52.2516 64.6619 52.2516C64.2762 52.2516 63.9064 52.0984 63.6337 51.8257C63.361 51.553 63.2078 51.1831 63.2078 50.7975C63.2078 50.4118 63.361 50.042 63.6337 49.7693C63.9064 49.4966 64.2762 49.3434 64.6619 49.3434C65.0475 49.3434 65.4174 49.4966 65.6901 49.7693C65.9628 50.042 66.116 50.4118 66.116 50.7975ZM70.4783 52.2516C70.864 52.2516 71.2338 52.0984 71.5065 51.8257C71.7792 51.553 71.9324 51.1831 71.9324 50.7975C71.9324 50.4118 71.7792 50.042 71.5065 49.7693C71.2338 49.4966 70.864 49.3434 70.4783 49.3434C70.0927 49.3434 69.7228 49.4966 69.4501 49.7693C69.1774 50.042 69.0242 50.4118 69.0242 50.7975C69.0242 51.1831 69.1774 51.553 69.4501 51.8257C69.7228 52.0984 70.0927 52.2516 70.4783 52.2516ZM60.2996 79.8796C60.2996 80.2652 60.1464 80.6351 59.8737 80.9078C59.601 81.1805 59.2311 81.3337 58.8455 81.3337C58.4598 81.3337 58.09 81.1805 57.8173 80.9078C57.5446 80.6351 57.3914 80.2652 57.3914 79.8796C57.3914 79.4939 57.5446 79.1241 57.8173 78.8514C58.09 78.5787 58.4598 78.4255 58.8455 78.4255C59.2311 78.4255 59.601 78.5787 59.8737 78.8514C60.1464 79.1241 60.2996 79.4939 60.2996 79.8796ZM66.116 79.8796C66.116 80.2652 65.9628 80.6351 65.6901 80.9078C65.4174 81.1805 65.0475 81.3337 64.6619 81.3337C64.2762 81.3337 63.9064 81.1805 63.6337 80.9078C63.361 80.6351 63.2078 80.2652 63.2078 79.8796C63.2078 79.4939 63.361 79.1241 63.6337 78.8514C63.9064 78.5787 64.2762 78.4255 64.6619 78.4255C65.0475 78.4255 65.4174 78.5787 65.6901 78.8514C65.9628 79.1241 66.116 79.4939 66.116 79.8796ZM70.4783 81.3337C70.864 81.3337 71.2338 81.1805 71.5065 80.9078C71.7792 80.6351 71.9324 80.2652 71.9324 79.8796C71.9324 79.4939 71.7792 79.1241 71.5065 78.8514C71.2338 78.5787 70.864 78.4255 70.4783 78.4255C70.0927 78.4255 69.7228 78.5787 69.4501 78.8514C69.1774 79.1241 69.0242 79.4939 69.0242 79.8796C69.0242 80.2652 69.1774 80.6351 69.4501 80.9078C69.7228 81.1805 70.0927 81.3337 70.4783 81.3337ZM80.657 71.1549C80.657 70.7693 80.5038 70.3994 80.2311 70.1267C79.9584 69.854 79.5886 69.7008 79.2029 69.7008C78.8173 69.7008 78.4474 69.854 78.1747 70.1267C77.902 70.3994 77.7488 70.7693 77.7488 71.1549C77.7488 71.5406 77.902 71.9105 78.1747 72.1832C78.4474 72.4558 78.8173 72.609 79.2029 72.609C79.5886 72.609 79.9584 72.4558 80.2311 72.1832C80.5038 71.9105 80.657 71.5406 80.657 71.1549ZM80.657 65.3385C80.657 64.9529 80.5038 64.583 80.2311 64.3103C79.9584 64.0376 79.5886 63.8844 79.2029 63.8844C78.8173 63.8844 78.4474 64.0376 78.1747 64.3103C77.902 64.583 77.7488 64.9529 77.7488 65.3385C77.7488 65.7242 77.902 66.094 78.1747 66.3667C78.4474 66.6394 78.8173 66.7926 79.2029 66.7926C79.5886 66.7926 79.9584 66.6394 80.2311 66.3667C80.5038 66.094 80.657 65.7242 80.657 65.3385ZM79.2029 58.068C79.5886 58.068 79.9584 58.2212 80.2311 58.4939C80.5038 58.7666 80.657 59.1365 80.657 59.5221C80.657 59.9078 80.5038 60.2776 80.2311 60.5503C79.9584 60.823 79.5886 60.9762 79.2029 60.9762C78.8173 60.9762 78.4474 60.823 78.1747 60.5503C77.902 60.2776 77.7488 59.9078 77.7488 59.5221C77.7488 59.1365 77.902 58.7666 78.1747 58.4939C78.4474 58.2212 78.8173 58.068 79.2029 58.068ZM50.1209 69.7008C50.5065 69.7008 50.8764 69.854 51.1491 70.1267C51.4218 70.3994 51.575 70.7693 51.575 71.1549C51.575 71.5406 51.4218 71.9105 51.1491 72.1832C50.8764 72.4558 50.5065 72.609 50.1209 72.609C49.7352 72.609 49.3653 72.4558 49.0926 72.1832C48.8199 71.9105 48.6667 71.5406 48.6667 71.1549C48.6667 70.7693 48.8199 70.3994 49.0926 70.1267C49.3653 69.854 49.7352 69.7008 50.1209 69.7008ZM50.1209 63.8844C50.5065 63.8844 50.8764 64.0376 51.1491 64.3103C51.4218 64.583 51.575 64.9529 51.575 65.3385C51.575 65.7242 51.4218 66.094 51.1491 66.3667C50.8764 66.6394 50.5065 66.7926 50.1209 66.7926C49.7352 66.7926 49.3653 66.6394 49.0926 66.3667C48.8199 66.094 48.6667 65.7242 48.6667 65.3385C48.6667 64.9529 48.8199 64.583 49.0926 64.3103C49.3653 64.0376 49.7352 63.8844 50.1209 63.8844ZM51.575 59.5221C51.575 59.1365 51.4218 58.7666 51.1491 58.4939C50.8764 58.2212 50.5065 58.068 50.1209 58.068C49.7352 58.068 49.3653 58.2212 49.0926 58.4939C48.8199 58.7666 48.6667 59.1365 48.6667 59.5221C48.6667 59.9078 48.8199 60.2776 49.0926 60.5503C49.3653 60.823 49.7352 60.9762 50.1209 60.9762C50.5065 60.9762 50.8764 60.823 51.1491 60.5503C51.4218 60.2776 51.575 59.9078 51.575 59.5221ZM71.9324 56.6139H57.3914C57.0057 56.6139 56.6359 56.7671 56.3632 57.0398C56.0905 57.3125 55.9373 57.6824 55.9373 58.068V72.609C55.9373 72.9947 56.0905 73.3646 56.3632 73.6373C56.6359 73.91 57.0057 74.0632 57.3914 74.0632H71.9324C72.3181 74.0632 72.6879 73.91 72.9606 73.6373C73.2333 73.3646 73.3865 72.9947 73.3865 72.609V58.068C73.3865 57.6824 73.2333 57.3125 72.9606 57.0398C72.6879 56.7671 72.3181 56.6139 71.9324 56.6139ZM57.3914 53.7057C56.2344 53.7057 55.1248 54.1653 54.3068 54.9834C53.4887 55.8015 53.0291 56.9111 53.0291 58.068V72.609C53.0291 73.766 53.4887 74.8756 54.3068 75.6937C55.1248 76.5118 56.2344 76.9714 57.3914 76.9714H71.9324C73.0894 76.9714 74.1989 76.5118 75.017 75.6937C75.8351 74.8756 76.2947 73.766 76.2947 72.609V58.068C76.2947 56.9111 75.8351 55.8015 75.017 54.9834C74.1989 54.1653 73.0894 53.7057 71.9324 53.7057H57.3914ZM67.5701 62.4303H61.7537V68.2467H67.5701V62.4303ZM58.8455 59.5221V71.1549H70.4783V59.5221H58.8455Z" fill="black"/>
</svg>
